<svg width="92" height="92" viewBox="0 0 92 92" fill="none" xmlns="http://www.w3.org/2000/svg">
<path d="M10.0234 50.8933C10.0234 48.5587 10.6626 47.3435 11.8778 46.416L49.2319 61.8307C47.345 67.5873 48.9171 72.7808 50.7989 74.2393L12.6459 56.8098C11.5638 55.9629 10.0234 53.8675 10.0234 50.8933Z" fill="white"/>
<path fill-rule="evenodd" clip-rule="evenodd" d="M11.0057 45.2733C11.4124 44.9629 11.9533 44.8921 12.4262 45.0872L49.7802 60.502C50.4757 60.7889 50.8322 61.5636 50.5979 62.2785C49.7303 64.9253 49.6655 67.422 50.0173 69.3944C50.3829 71.4445 51.1477 72.6909 51.6795 73.1031C52.2564 73.5502 52.4067 74.3586 52.029 74.9832C51.6513 75.6077 50.8655 75.8501 50.2016 75.5468L12.0485 58.1173C11.9458 58.0704 11.8489 58.0115 11.7599 57.9418C10.3742 56.8573 8.58594 54.3632 8.58594 50.8933C8.58594 49.6026 8.76142 48.5017 9.17818 47.5502C9.60446 46.5771 10.2405 45.8573 11.0057 45.2733ZM12.6459 56.8098C11.5638 55.9629 10.0234 53.8675 10.0234 50.8933C10.0234 48.5587 10.6626 47.3435 11.8778 46.416L49.2319 61.8308C47.9205 65.8317 48.2799 69.5606 49.2529 71.9526C49.6799 73.0023 50.225 73.7945 50.7989 74.2393L12.6459 56.8098Z" fill="#F15E04" fill-opacity="0.5"/>
<path d="M81.9793 31.7336L45.8474 17.7607L11.6914 46.5534L50.9284 63.0668L81.9793 31.7336Z" fill="#F15E04" fill-opacity="0.5"/>
<path fill-rule="evenodd" clip-rule="evenodd" d="M44.9209 16.6617C45.3223 16.3233 45.8762 16.2307 46.3659 16.42L82.4978 30.3929C82.9501 30.5678 83.2838 30.9591 83.3851 31.4333C83.4864 31.9076 83.3418 32.401 83.0004 32.7455L51.9495 64.0787C51.5365 64.4954 50.9116 64.6194 50.3708 64.3918L11.1338 47.8783C10.6726 47.6842 10.3456 47.2643 10.2703 46.7697C10.195 46.275 10.3824 45.7768 10.7649 45.4543L44.9209 16.6617ZM45.8474 17.7608L81.9793 31.7337L50.9284 63.0668L11.6914 46.5534L45.8474 17.7608Z" fill="#F15E04" fill-opacity="0.5"/>
<path d="M61.3195 35.0148L45.521 28.8105L42.4883 31.4126L58.1534 37.973L61.3195 35.0148Z" fill="white"/>
<path d="M81.9496 42.4504C78.4957 39.6361 79.1353 35.1268 81.7897 31.8008L49.4889 62.3104C47.5062 67.0756 49.1152 71.6827 50.8324 74.2233L81.9496 42.4504Z" fill="white"/>
<path fill-rule="evenodd" clip-rule="evenodd" d="M82.7605 30.7429C83.316 31.2539 83.3816 32.1075 82.9108 32.6975C81.7335 34.1726 81.0615 35.8414 81.0133 37.3629C80.9667 38.8359 81.4953 40.2279 82.8552 41.336C83.1684 41.5912 83.3597 41.9664 83.3824 42.3698C83.405 42.7732 83.2568 43.1675 82.9741 43.4562L51.8568 75.2291C51.5548 75.5375 51.1301 75.6938 50.7002 75.6549C50.2703 75.616 49.8806 75.3859 49.6389 75.0283C47.7511 72.2353 45.9311 67.1131 48.1592 61.7582C48.2367 61.5719 48.3526 61.404 48.4993 61.2654L80.8002 30.7558C81.3489 30.2375 82.205 30.2318 82.7605 30.7429ZM81.7872 31.8008L49.4864 62.3104C47.8023 66.3579 48.7095 70.2915 50.0733 72.9413C50.3151 73.4112 50.5712 73.8407 50.8298 74.2233L81.9471 42.4504C81.5925 42.1614 81.2811 41.8546 81.0105 41.5331C79.575 39.8271 79.2908 37.7058 79.8219 35.6345C80.1657 34.2936 80.8512 32.9736 81.7872 31.8008Z" fill="#F15E04" fill-opacity="0.5"/>
<path fill-rule="evenodd" clip-rule="evenodd" d="M79.9372 42.0782C80.2133 42.3634 80.2059 42.8185 79.9207 43.0945L57.9179 64.3937C57.6327 64.6698 57.1776 64.6624 56.9015 64.3772C56.6255 64.092 56.6328 63.637 56.9181 63.3609L78.9208 42.0617C79.206 41.7856 79.6611 41.793 79.9372 42.0782Z" fill="#F15E04" fill-opacity="0.5"/>
<path fill-rule="evenodd" clip-rule="evenodd" d="M78.6677 40.2982C78.9377 40.5892 78.9207 41.044 78.6298 41.314L64.4303 54.4901C64.1393 54.7601 63.6846 54.7431 63.4145 54.4521C63.1445 54.1611 63.1615 53.7063 63.4525 53.4363L77.652 40.2602C77.943 39.9902 78.3977 40.0072 78.6677 40.2982Z" fill="#F15E04" fill-opacity="0.5"/>
<path fill-rule="evenodd" clip-rule="evenodd" d="M17.7976 54.889C17.9531 54.5238 18.3752 54.3537 18.7404 54.5092L32.4339 60.3375C32.7991 60.4929 32.9692 60.915 32.8137 61.2803C32.6583 61.6455 32.2362 61.8156 31.8709 61.6601L18.1775 55.8318C17.8122 55.6764 17.6422 55.2543 17.7976 54.889Z" fill="#F15E04" fill-opacity="0.5"/>
</svg>
