<svg width="126" height="126" viewBox="0 0 126 126" fill="none" xmlns="http://www.w3.org/2000/svg">
<g opacity="0.5">
<path fill-rule="evenodd" clip-rule="evenodd" d="M43.1094 71.0058L62.7998 72.3509C64.3333 72.4557 65.8523 71.9976 67.0722 71.0625L82.3944 59.3176L86.1762 71.946C86.1799 71.9579 86.1836 71.9698 86.1872 71.9817C87.3523 75.8723 79.5074 81.6586 68.665 84.9058C57.8226 88.1529 48.0885 87.6313 46.9233 83.7406C46.9221 83.7367 46.9209 83.7327 46.9197 83.7287C46.9173 83.7208 46.9149 83.7129 46.9126 83.7049L43.1094 71.0058Z" fill="#F15E04"/>
<path d="M101.171 63.9593C101.436 62.698 101.683 61.0892 101.873 59.6676C102.021 58.5607 103.21 57.9707 104.026 58.7333C105.454 60.0687 106.655 61.8131 107.35 63.0068C107.57 63.386 107.617 63.855 107.386 64.2284C106.409 65.8118 104.257 66.1103 102.478 65.983C101.524 65.9148 100.973 64.8952 101.171 63.9593Z" fill="white"/>
<path fill-rule="evenodd" clip-rule="evenodd" d="M103.027 59.2176C102.866 59.2913 102.696 59.4779 102.656 59.7723C102.465 61.2004 102.216 62.8319 101.944 64.1221C101.886 64.395 101.941 64.6782 102.067 64.8851C102.188 65.0826 102.351 65.1824 102.535 65.1956C103.368 65.2552 104.25 65.2112 105.013 64.9892C105.771 64.7687 106.359 64.3902 106.715 63.8137C106.755 63.7493 106.782 63.6 106.668 63.404C105.995 62.248 104.84 60.5742 103.487 59.31C103.323 59.1568 103.167 59.1537 103.027 59.2176ZM102.372 57.7812C103.067 57.464 103.913 57.5472 104.565 58.1566L104.026 58.7333M102.372 57.7812C101.698 58.0886 101.2 58.7504 101.091 59.5629L102.372 57.7812ZM104.565 58.1566C106.07 59.5633 107.316 61.3781 108.033 62.6096C108.36 63.1719 108.48 63.9607 108.059 64.643C107.437 65.65 106.46 66.2124 105.454 66.5052C104.452 66.7965 103.369 66.8381 102.423 66.7704C100.842 66.6573 100.137 65.0415 100.399 63.7965C100.659 62.5641 100.902 60.9781 101.091 59.5629" fill="#F15E04"/>
<path fill-rule="evenodd" clip-rule="evenodd" d="M101.106 57.7187C101.35 57.3575 101.841 57.2624 102.202 57.5065C102.556 57.7458 102.829 58.1717 103.029 58.5343C103.249 58.9343 103.462 59.4152 103.656 59.9046C104.046 60.8859 104.387 61.9719 104.584 62.6756C104.702 63.0955 104.456 63.5311 104.037 63.6485C103.617 63.766 103.181 63.5209 103.064 63.101C102.877 62.4346 102.552 61.4036 102.189 60.4871C102.006 60.0276 101.821 59.6144 101.646 59.2957C101.558 59.1364 101.479 59.0132 101.413 58.9245C101.349 58.8408 101.316 58.8137 101.316 58.8134C101.316 58.8133 101.317 58.8138 101.318 58.8148C100.957 58.5707 100.862 58.08 101.106 57.7187Z" fill="#F15E04"/>
<path fill-rule="evenodd" clip-rule="evenodd" d="M97.6578 42.8449C98.2842 42.6572 98.9442 43.013 99.1318 43.6395L102.894 56.2013C103.082 56.8278 102.726 57.4877 102.099 57.6753C101.473 57.863 100.813 57.5072 100.625 56.8807L96.8632 44.3189C96.6755 43.6924 97.0313 43.0325 97.6578 42.8449Z" fill="#F15E04"/>
<path d="M105.015 56.0518C105.531 57.7759 104.552 59.5922 102.828 60.1086C101.104 60.625 99.2873 59.6458 98.7709 57.9217C98.2545 56.1975 99.2336 54.3812 100.958 53.8648C102.682 53.3485 104.498 54.3276 105.015 56.0518Z" fill="#F15E04"/>
<path d="M52.9875 40.396L20.7079 65.9786C20.1113 66.4514 20.4091 67.4108 21.1685 67.4626L62.0607 70.2561C63.679 70.3666 65.282 69.8832 66.5694 68.8964L98.7543 44.2257C99.3559 43.7645 99.079 42.8048 98.3242 42.735L57.7406 38.9829C56.0335 38.825 54.3312 39.3312 52.9875 40.396Z" fill="#F15E04"/>
<path fill-rule="evenodd" clip-rule="evenodd" d="M88.2092 48.3287C88.4699 48.6781 88.3979 49.1728 88.0485 49.4334L65.0087 66.6202C64.6592 66.8808 64.1646 66.8089 63.9039 66.4594C63.6432 66.11 63.7152 65.6153 64.0646 65.3547L87.1045 48.1679C87.4539 47.9073 87.9485 47.9792 88.2092 48.3287Z" fill="white"/>
<path fill-rule="evenodd" clip-rule="evenodd" d="M26.8474 64.7975C26.8738 64.3623 27.2479 64.031 27.6831 64.0574L37.2777 64.6395C37.7129 64.6659 38.0443 65.0401 38.0179 65.4753C37.9915 65.9105 37.6173 66.2418 37.1821 66.2154L27.5875 65.6333C27.1523 65.6069 26.8209 65.2327 26.8474 64.7975Z" fill="white"/>
</g>
</svg>
