<svg width="356" height="206" viewBox="0 0 356 206" fill="none" xmlns="http://www.w3.org/2000/svg">
<path d="M174.197 1.05316L0.976396 101.054M194.281 12.6474L21.06 112.648M214.365 24.2417L41.1436 124.242M234.448 35.8359L61.2272 135.836M254.532 47.4302L81.3108 147.431M274.615 59.0245L101.394 159.025M294.699 70.6187L121.478 170.619M314.783 82.213L141.562 182.213M334.866 93.8073L161.645 193.808M354.95 105.402L181.729 205.402M354.531 101.054L181.31 1.05315M334.448 112.648L161.227 12.6474M314.364 124.242L141.143 24.2417M294.281 135.836L121.06 35.8359M274.197 147.431L100.976 47.4302M254.113 159.025L80.8924 59.0245M234.03 170.619L60.8088 70.6187M213.946 182.213L40.7252 82.213M193.863 193.808L20.6416 93.8072M173.779 205.402L0.557998 105.401" stroke="url(#paint0_radial_2300_3163)" stroke-width="0.772951"/>
<defs>
<radialGradient id="paint0_radial_2300_3163" cx="0" cy="0" r="1" gradientUnits="userSpaceOnUse" gradientTransform="translate(185.369 98.9521) rotate(150.002) scale(113.148 97.985)">
<stop stop-color="#B5FF1A" stop-opacity="0.24"/>
<stop offset="1" stop-color="#B5FF1A" stop-opacity="0"/>
</radialGradient>
</defs>
</svg>
