<svg width="83" height="40" viewBox="0 0 83 40" fill="none" xmlns="http://www.w3.org/2000/svg">
<g clip-path="url(#clip0_2092_3679)">
<path d="M33.1114 23.2278L28.9994 17.9734V23.2278H25.9375V6.75391H28.9994V16.1264L33.0672 10.8945H37.0481L31.7122 17.0829L37.0923 23.2278H33.1114Z" fill="#311100"/>
<path d="M50.259 32.5639V39.8001H47.1971V32.9881C47.1971 32.0077 46.957 31.2549 46.4754 30.7282C45.9938 30.2015 45.3384 29.9374 44.5064 29.9374C43.6743 29.9374 42.994 30.2015 42.5056 30.7282C42.0171 31.2549 41.7728 32.0077 41.7728 32.9881V39.8001H38.7109V10.8932H41.7728V12.8076C42.1661 12.1545 42.6794 11.6432 43.3142 11.271C43.9489 10.9002 44.6733 10.7148 45.4902 10.7148V13.9874H44.6816C43.7185 13.9874 42.9926 14.2178 42.5056 14.6771C42.0157 15.1378 41.7728 15.9397 41.7728 17.0816V29.0034C42.1661 28.4683 42.6918 28.0497 43.3473 27.7449C44.0041 27.4416 44.7327 27.2885 45.5343 27.2885C46.4533 27.2885 47.2702 27.4921 47.985 27.9008C48.6984 28.3096 49.2558 28.9107 49.6574 29.7043C50.0589 30.4978 50.259 31.4515 50.259 32.5639Z" fill="#FF5C00"/>
<path d="M50.6088 10.8945V23.2278H47.5469V10.8945H50.6088Z" fill="#311100"/>
<path d="M56.6869 6.75391V23.2278H53.625V6.75391H56.6869Z" fill="#311100"/>
<path d="M62.7728 6.75391V23.2278H59.7109V6.75391H62.7728Z" fill="#311100"/>
<path d="M21.6141 25.3906C20.6731 24.156 19.5512 23.2305 18.2473 22.6125C16.9419 21.9945 15.2585 21.3779 13.1956 20.7599C11.6791 20.2964 10.5035 19.8876 9.67006 19.5323C8.83525 19.1769 8.13704 18.7148 7.57681 18.1432C7.01521 17.5715 6.7351 16.8538 6.7351 15.9886C6.7351 14.754 7.10628 13.8116 7.84865 13.1641C8.59239 12.5152 9.58589 12.1907 10.8305 12.1907C12.2559 12.1907 13.4012 12.5545 14.265 13.2793C15.1302 14.0054 15.5924 14.924 15.6531 16.035H22.6601C22.4476 13.1332 21.3188 10.8705 19.2711 9.24962C17.2234 7.62878 14.5617 6.81836 11.2845 6.81836C9.4824 6.81836 7.84451 7.07539 6.3722 7.59367C6.06035 7.70041 5.75678 7.8212 5.46011 7.95323C3.7615 8.71028 2.44097 9.7988 1.50129 11.2188C0.561603 12.6388 0.0910708 14.306 0.0910708 16.2204C0.0910708 18.2584 0.553324 19.8876 1.47921 21.1068C2.40372 22.3273 3.51037 23.2375 4.80054 23.84C6.08932 24.4412 7.76586 25.0521 9.82875 25.6687C11.3452 26.1013 12.536 26.496 13.4012 26.85C14.265 27.2053 14.9853 27.6927 15.5621 28.3093C16.1375 28.9273 16.4272 29.7152 16.4272 30.6717C16.4272 31.8459 16.0022 32.7954 15.1522 33.5201C14.3036 34.2463 13.1349 34.6087 11.6488 34.6087C10.1627 34.6087 9.04775 34.2224 8.21293 33.4499C7.37811 32.6788 6.91586 31.6296 6.82617 30.3009H0C0.0303569 32.2771 0.561603 33.9907 1.59236 35.4416C2.62312 36.8939 4.02643 38.0063 5.80231 38.7773C7.57681 39.5498 9.57071 39.9347 11.7854 39.9347C13.4881 39.9347 15.0212 39.7001 16.3845 39.231C16.5156 39.1861 16.6439 39.1397 16.7722 39.0906C17.1406 38.9501 17.4953 38.7914 17.8375 38.6144C19.5361 37.7352 20.8249 36.554 21.7052 35.0722C22.5842 33.589 23.0244 31.985 23.0244 30.2546C23.0244 28.2475 22.5538 26.6266 21.6141 25.3906Z" fill="#311100"/>
<path d="M25.9143 30.2845C26.4248 29.3266 27.1313 28.585 28.0351 28.0583C28.9389 27.5316 29.9738 27.2676 31.1412 27.2676C32.6425 27.2676 33.8857 27.6496 34.8696 28.4137C35.8534 29.1778 36.513 30.2508 36.8483 31.6301H33.5463C33.371 31.0964 33.0757 30.6764 32.6604 30.3716C32.2451 30.0682 31.7304 29.9151 31.1191 29.9151C30.2443 29.9151 29.5516 30.2382 29.041 30.8829C28.5305 31.529 28.2752 32.4447 28.2752 33.6316C28.2752 34.8184 28.5305 35.7131 29.041 36.3592C29.5516 37.0053 30.2443 37.3283 31.1191 37.3283C32.3582 37.3283 33.1668 36.7651 33.5463 35.6359H36.8483C36.513 36.9716 35.8493 38.0334 34.8585 38.82C33.8664 39.6065 32.6273 39.9998 31.1412 39.9998C29.9738 39.9998 28.9389 39.7371 28.0351 39.209C27.1313 38.6823 26.4234 37.9407 25.9143 36.9828C25.4037 36.0249 25.1484 34.9083 25.1484 33.633C25.1484 32.3576 25.4037 31.2396 25.9143 30.2831V30.2845Z" fill="#311100"/>
<path d="M54.8799 39.2104C53.9471 38.6837 53.2144 37.9379 52.6817 36.973C52.1491 36.0081 51.8828 34.8957 51.8828 33.6344C51.8828 32.3731 52.156 31.2607 52.7025 30.2958C53.2489 29.3309 53.9968 28.585 54.9447 28.0583C55.8927 27.5316 56.9497 27.2676 58.1156 27.2676C59.2816 27.2676 60.3386 27.5316 61.2866 28.0583C62.2345 28.585 62.981 29.3309 63.5288 30.2958C64.0753 31.2607 64.3485 32.3731 64.3485 33.6344C64.3485 34.8957 64.067 36.0095 63.5068 36.973C62.9452 37.9379 62.1876 38.6837 61.2327 39.2104C60.2779 39.7371 59.2099 40.0012 58.0287 40.0012C56.8475 40.0012 55.8127 39.7385 54.8799 39.2104ZM59.5921 36.8718C60.0806 36.598 60.4697 36.185 60.7622 35.6359C61.0534 35.0867 61.1996 34.4195 61.1996 33.6316C61.1996 32.4588 60.8974 31.5571 60.2917 30.9264C59.6859 30.2958 58.9463 29.9798 58.0715 29.9798C57.1967 29.9798 56.4639 30.2958 55.8734 30.9264C55.2828 31.5571 54.9875 32.4588 54.9875 33.6316C54.9875 34.8044 55.2745 35.7061 55.8513 36.3367C56.4267 36.9674 57.1525 37.2834 58.0273 37.2834C58.5807 37.2834 59.1022 37.1457 59.5907 36.8718H59.5921Z" fill="#311100"/>
<path d="M82.9994 23.3262V39.8001H79.9375V23.3262H82.9994Z" fill="#311100"/>
<path d="M52.8281 27.6572C53.2545 27.2527 55.1215 25.5756 58.0136 25.5377C61.0286 25.4998 62.9894 27.2723 63.3937 27.6572" stroke="#311100" stroke-width="2" stroke-miterlimit="10" stroke-linecap="round"/>
<path d="M58.1128 35.3928C58.8482 35.3928 59.4444 34.6049 59.4444 33.6329C59.4444 32.661 58.8482 31.873 58.1128 31.873C57.3774 31.873 56.7812 32.661 56.7812 33.6329C56.7812 34.6049 57.3774 35.3928 58.1128 35.3928Z" fill="#311100"/>
<path d="M58.1104 35.8858C59.0515 35.8858 59.8145 34.8778 59.8145 33.6343C59.8145 32.3908 59.0515 31.3828 58.1104 31.3828C57.1692 31.3828 56.4062 32.3908 56.4062 33.6343C56.4062 34.8778 57.1692 35.8858 58.1104 35.8858Z" stroke="#311100" stroke-width="0.326678" stroke-miterlimit="10"/>
<path d="M68.5205 39.2104C67.5877 38.6837 66.855 37.9379 66.3224 36.973C65.7898 36.0081 65.5234 34.8957 65.5234 33.6344C65.5234 32.3731 65.7967 31.2607 66.3431 30.2958C66.8895 29.3309 67.6374 28.585 68.5853 28.0583C69.5333 27.5316 70.5903 27.2676 71.7563 27.2676C72.9222 27.2676 73.9792 27.5316 74.9272 28.0583C75.8752 28.585 76.6217 29.3309 77.1695 30.2958C77.7159 31.2607 77.9891 32.3731 77.9891 33.6344C77.9891 34.8957 77.7076 36.0095 77.1474 36.973C76.5858 37.9379 75.8282 38.6837 74.8734 39.2104C73.9185 39.7371 72.8505 40.0012 71.6693 40.0012C70.4882 40.0012 69.4533 39.7385 68.5205 39.2104ZM73.2341 36.8718C73.7226 36.598 74.1117 36.185 74.4042 35.6359C74.6954 35.0867 74.8416 34.4195 74.8416 33.6316C74.8416 32.4588 74.5394 31.5571 73.9337 30.9264C73.3279 30.2958 72.5883 29.9798 71.7135 29.9798C70.8387 29.9798 70.106 30.2958 69.5154 30.9264C68.9248 31.5571 68.6295 32.4588 68.6295 33.6316C68.6295 34.8044 68.9165 35.7061 69.4933 36.3367C70.0687 36.9674 70.7945 37.2834 71.6693 37.2834C72.2227 37.2834 72.7442 37.1457 73.2327 36.8718H73.2341Z" fill="#311100"/>
<path d="M66.4766 27.6572C66.9029 27.2527 68.7699 25.5756 71.6621 25.5377C74.6771 25.4998 76.6379 27.2723 77.0422 27.6572" stroke="#311100" stroke-width="2" stroke-miterlimit="10" stroke-linecap="round"/>
<path d="M71.7613 35.3928C72.4967 35.3928 73.0928 34.6049 73.0928 33.6329C73.0928 32.661 72.4967 31.873 71.7613 31.873C71.0258 31.873 70.4297 32.661 70.4297 33.6329C70.4297 34.6049 71.0258 35.3928 71.7613 35.3928Z" fill="#311100"/>
<path d="M71.7588 35.8858C72.7 35.8858 73.4629 34.8778 73.4629 33.6343C73.4629 32.3908 72.7 31.3828 71.7588 31.3828C70.8176 31.3828 70.0547 32.3908 70.0547 33.6343C70.0547 34.8778 70.8176 35.8858 71.7588 35.8858Z" stroke="#311100" stroke-width="0.326678" stroke-miterlimit="10"/>
<path d="M53.625 2.78942V5.48615L58.191 2.78942L62.7666 5.48615V2.78942L58.1965 0L53.625 2.78942Z" fill="#FF5C00"/>
<path d="M53.625 3.57642C55.1484 2.72105 56.6717 1.86709 58.1965 1.01172C59.7198 1.86006 61.2432 2.70981 62.768 3.55816V4.66353L58.1923 1.96681L53.6264 4.66353V3.57501L53.625 3.57642Z" fill="#FF834D"/>
<path d="M53.625 4.39868C55.1484 3.54331 56.6717 2.68935 58.1965 1.83398C59.7198 2.68233 61.2432 3.53208 62.768 4.38042V5.4858L58.1923 2.78907L53.6264 5.4858V4.39728L53.625 4.39868Z" fill="#FFBF9F"/>
<path d="M22.6629 16.0349H21.4803C21.2057 13.6472 20.3033 12.1078 19.6934 11.2749C17.0537 7.66807 11.813 6.26493 6.375 7.59363C6.71031 7.47565 7.16428 7.32958 7.71071 7.19896C7.90665 7.15261 8.72076 6.96299 9.924 6.86467C10.2676 6.83658 11.3591 6.75091 12.5388 6.8408C13.7766 6.9349 16.9641 7.17508 19.6203 9.53331C20.4579 10.2763 20.9436 10.9645 21.0802 11.1626C22.3786 13.0503 22.616 15.0124 22.6629 16.0349Z" fill="#FF5C00"/>
<path d="M16.3845 39.2309C15.0212 39.7 13.4881 39.9345 11.7854 39.9345C9.57071 39.9345 7.57681 39.5497 5.80231 38.7772C4.02643 38.0061 2.62312 36.8937 1.59236 35.4414C0.561603 33.9905 0.0303569 32.277 0 30.3008H1.31501C1.40884 32.6885 2.19674 34.2518 2.74316 35.1001C5.18552 38.8966 10.607 40.5371 16.3845 39.2309Z" fill="#FF5C00"/>
<path d="M6.36857 7.59379C10.6779 6.59797 15.7944 7.09518 19.0343 10.4268C20.4873 11.9142 21.3111 13.9592 21.4739 16.0351C21.2724 14.396 20.7398 12.7653 19.7408 11.4507C17.78 8.75676 14.4421 7.48283 11.2353 7.26934C10.337 7.1949 9.38632 7.2258 8.48803 7.28901C8.2714 7.31148 7.79258 7.37047 7.57595 7.39435C7.2089 7.43789 6.73423 7.53761 6.36719 7.59379H6.36857Z" fill="white"/>
<path d="M16.382 39.2309C15.5706 39.443 14.7427 39.5862 13.9079 39.6649C13.0731 39.7407 12.23 39.7449 11.3924 39.6888C10.5562 39.6396 9.71723 39.5427 8.89759 39.3432C8.07796 39.148 7.28454 38.839 6.53113 38.4626C5.01743 37.7238 3.65688 36.5988 2.74893 35.1479C2.29358 34.4273 1.94034 33.6408 1.6961 32.8233C1.46153 32.0031 1.3263 31.1519 1.3125 30.3008C1.40081 32.0003 1.91274 33.6787 2.83725 35.0889C3.07044 35.4386 3.32572 35.7743 3.59893 36.0931C3.87766 36.4077 4.17571 36.7027 4.49308 36.9752C5.12782 37.5229 5.8412 37.9682 6.59047 38.3362C7.33697 38.714 8.11521 39.0202 8.92657 39.2182C9.73517 39.4219 10.5658 39.5146 11.3993 39.5806C13.0634 39.7225 14.7468 39.5975 16.3806 39.2295L16.382 39.2309Z" fill="white"/>
<path d="M49.0528 10.2525C50.2341 10.2525 51.1916 9.27783 51.1916 8.07548C51.1916 6.87313 50.2341 5.89844 49.0528 5.89844C47.8716 5.89844 46.9141 6.87313 46.9141 8.07548C46.9141 9.27783 47.8716 10.2525 49.0528 10.2525Z" fill="#311100"/>
</g>
<defs>
<clipPath id="clip0_2092_3679">
<rect width="83" height="40" fill="white"/>
</clipPath>
</defs>
</svg>
