<svg width="26" height="21" viewBox="0 0 26 21" fill="none" xmlns="http://www.w3.org/2000/svg">
<path d="M0.601561 3.2033C0.687291 3.67318 1.54326 5.07617 3.23067 7.53138L4.41055 9.28184L2.94769 13.3144C1.26223 17.9442 1.12853 18.5528 1.6352 18.9932C2.23569 19.5152 3.25859 19.0207 5.96254 16.8577C7.38099 15.7186 8.65262 14.7485 8.82556 14.7011C9.18775 14.5877 10.7453 15.9416 13.1628 18.5044C15.4278 20.9016 15.6995 21.006 16.7271 19.8238C17.086 19.4109 18.8851 15.9012 20.6946 12.0382C22.5393 8.17278 24.4027 4.32366 24.87 3.445C25.8674 1.57754 26.0467 0.613265 25.4936 0.264202C25.2546 0.122295 23.7087 0.195144 21.9972 0.420569C20.2858 0.645994 16.446 0.932123 13.457 1.03539C4.33343 1.37375 3.5968 1.42526 2.49798 1.59022C1.39916 1.75518 0.501113 2.52296 0.601561 3.2033ZM7.09096 2.74952C9.46485 2.67164 12.9449 2.53404 14.8065 2.43912C16.6681 2.34419 18.3053 2.31783 18.4318 2.36186C18.6659 2.43361 17.4375 3.013 9.91656 6.35887C6.59986 7.82452 5.51575 8.19995 5.33951 7.94791C3.36731 4.94862 2.42401 3.30499 2.58714 3.11733C2.68501 3.00474 4.70076 2.84616 7.09096 2.74952ZM14.2213 5.91685C20.8344 3.19846 21.9372 2.83935 20.8598 3.81355C17.2448 7.06253 10.9029 11.8945 8.57732 13.1675C7.74612 13.631 6.44836 14.4796 5.68082 15.0973C4.91082 15.6799 4.15468 16.2086 3.99806 16.2372C3.84143 16.2658 4.00199 15.2852 4.37705 14.0957C4.71704 12.9087 5.12388 11.4174 5.25757 10.8088L5.51599 9.71566L6.70693 9.10364C7.38886 8.77396 10.7594 7.32216 14.2213 5.91685ZM12.4268 12.2639C13.9228 11.2251 21.3911 5.36262 21.8478 4.83719C22.2907 4.3656 21.8292 5.57873 20.6165 8.14861C19.9078 9.60814 18.6006 12.59 17.6955 14.7683C16.8066 16.9278 15.9846 18.7829 15.8867 18.8955C15.7073 19.102 15.0668 18.5123 11.6286 14.9634C10.9832 14.3035 10.5344 13.6828 10.6323 13.5702C10.7139 13.4764 11.5353 12.8726 12.4268 12.2639Z" fill="#FF5C00" fill-opacity="0.4"/>
</svg>
