<svg width="66" height="76" viewBox="0 0 66 76" fill="none" xmlns="http://www.w3.org/2000/svg">
<path d="M1.31301 4.29908L31.6403 1.40066L24.2174 12.0151M1.31301 4.29908L16.7381 24.5675L20.5911 16.9517M1.31301 4.29908L20.5911 16.9517M1.31301 4.29908L24.2174 12.0151M20.5911 16.9517L29.6654 16.0845L24.2174 12.0151M21.7542 29.1614L24.5862 31.065M23.8108 22.9252L28.7129 26.3221M30.7333 12.1171L34.373 14.9098M33.2099 2.70016L36.8267 5.25351M61.5325 74.8847C65.0068 71.9073 69.2234 63.0179 58.4457 51.198M58.4457 51.198C58.3964 51.1438 58.3467 51.0896 58.2967 51.0354C45.2142 36.8365 45.9824 62.0297 58.4457 51.198ZM58.4457 51.198C59.0403 50.6812 59.6615 50.0825 60.3091 49.3936C68.1859 41.0141 52.9226 24.9747 39.1167 21.704" stroke="#FF5C00"/>
</svg>
