<svg width="111" height="111" viewBox="0 0 111 111" fill="none" xmlns="http://www.w3.org/2000/svg">
<path d="M26.8823 59.4024C25.7064 57.2399 26.6657 54.5051 28.9583 53.6092C34.5744 51.4146 44.4057 47.4752 51.326 44.1651C58.2464 40.8551 67.4837 35.674 72.7172 32.6793C74.8536 31.4567 77.5848 32.4264 78.5301 34.6991C79.0323 35.9063 79.5788 37.169 80.0762 38.209C80.5736 39.249 81.2137 40.467 81.8383 41.6156C83.0143 43.778 82.055 46.5129 79.7623 47.4088C74.1462 49.6034 64.3149 53.5428 57.3946 56.8528C50.4743 60.1629 41.2369 65.344 36.0035 68.3387C33.867 69.5613 31.1359 68.5916 30.1905 66.3189C29.6883 65.1116 29.1419 63.8489 28.6444 62.809C28.147 61.769 27.507 60.551 26.8823 59.4024Z" fill="white"/>
<path fill-rule="evenodd" clip-rule="evenodd" d="M28.5939 52.6836C34.2103 50.4888 44.0108 46.5612 50.8946 43.2686C57.7783 39.9761 66.9872 34.8116 72.2209 31.8167C74.8908 30.289 78.2763 31.5075 79.4451 34.3175C79.9447 35.5185 80.4836 36.763 80.9702 37.7803C81.4567 38.7975 82.0874 39.9982 82.7088 41.1409C84.1627 43.8145 82.9865 47.2149 80.1214 48.3345C74.505 50.5293 64.7046 54.457 57.8208 57.7495C50.937 61.042 41.7282 66.2066 36.4944 69.2014C33.8246 70.7292 30.4391 69.5106 29.2702 66.7007C28.7706 65.4997 28.2318 64.2551 27.7452 63.2379C27.2586 62.2206 26.628 61.02 26.0066 59.8773C24.5526 57.2037 25.7289 53.8032 28.5939 52.6836ZM28.9557 53.6093C26.663 54.5052 25.7037 57.24 26.8797 59.4024C27.5043 60.5511 28.1444 61.769 28.6418 62.809C29.1392 63.849 29.6857 65.1117 30.1879 66.319C31.1332 68.5917 33.8644 69.5613 36.0008 68.3388C41.2343 65.3441 50.4716 60.1629 57.392 56.8529C64.3123 53.5429 74.1436 49.6035 79.7597 47.4089C82.0523 46.5129 83.0116 43.7781 81.8357 41.6157C81.211 40.467 80.571 39.2491 80.0736 38.2091C79.5761 37.1691 79.0297 35.9064 78.5275 34.6992C77.5821 32.4265 74.851 31.4568 72.7145 32.6793C67.4811 35.6741 58.2437 40.8552 51.3234 44.1652C44.4031 47.4752 34.5718 51.4146 28.9557 53.6093Z" fill="#F15E04"/>
<path d="M46.6927 45.3847C46.5035 44.9024 46.7206 44.3582 47.1879 44.1346L55.445 40.1852C55.9124 39.9617 56.4724 40.1343 56.7291 40.5843C57.5691 42.0567 59.3761 45.2718 60.497 47.6154C61.6179 49.9589 62.9867 53.3835 63.6058 54.9616C63.795 55.4439 63.5779 55.9882 63.1105 56.2117L54.8534 60.1611C54.3861 60.3847 53.8261 60.2121 53.5694 59.7621C52.7294 58.2897 50.9224 55.0745 49.8015 52.731C48.6806 50.3875 47.3117 46.9628 46.6927 45.3847Z" fill="#F15E04"/>
<path d="M54.957 55.3184L59.0108 53.3794L62.4443 60.558L59.448 59.5006L58.3906 62.4969L54.957 55.3184Z" fill="white"/>
<path fill-rule="evenodd" clip-rule="evenodd" d="M54.0617 55.7472C53.8248 55.252 54.0342 54.6586 54.5294 54.4217L58.5832 52.4828C59.0784 52.246 59.6718 52.4554 59.9086 52.9506L63.3421 60.1291C63.5156 60.4918 63.4535 60.9232 63.1849 61.2222C62.9162 61.5212 62.4939 61.629 62.1148 61.4952L60.0557 60.7685L59.329 62.8277C59.1952 63.2067 58.8463 63.4679 58.4449 63.4894C58.0434 63.5108 57.6686 63.2884 57.4952 62.9257L54.0617 55.7472ZM59.4492 59.5006L62.4455 60.558L59.012 53.3794L54.9582 55.3183L58.3918 62.4969L59.4492 59.5006Z" fill="#F15E04"/>
<path d="M60.925 50.391C61.2031 50.9724 60.6722 51.6112 60.7213 52.2175C60.7712 52.8332 61.3977 53.4164 61.2317 54.0001C61.0305 54.7078 60.1608 54.9137 59.6758 55.4799C59.2256 56.0053 59.1785 56.9045 58.5142 57.2223C57.8499 57.54 57.1203 57.0123 56.4287 57.0329C55.6835 57.0552 54.9774 57.6031 54.3002 57.3155C53.7416 57.0784 53.6807 56.2246 53.2327 55.7993C52.7915 55.3805 51.961 55.3929 51.6829 54.8115C51.4048 54.23 51.9357 53.5913 51.8866 52.985C51.8423 52.4385 51.1975 51.9243 51.3241 51.4004C51.4925 50.7036 52.0801 50.6181 52.5215 50.045C52.996 49.4289 53.3442 48.3387 54.0937 47.9802C54.8432 47.6217 55.9105 48.0349 56.688 48.0522C57.4111 48.0682 57.8465 47.6645 58.4947 47.9707C58.982 48.2009 58.9776 49.0257 59.3752 49.4031C59.8164 49.8219 60.6469 49.8095 60.925 50.391Z" fill="white"/>
<path fill-rule="evenodd" clip-rule="evenodd" d="M53.296 49.7598C53.1834 49.9568 53.0586 50.1658 52.9177 50.3487C52.7004 50.6308 52.4371 50.8317 52.2512 50.9734C52.2078 51.0066 52.1685 51.0365 52.1351 51.0634C51.9512 51.212 51.8571 51.3214 51.8097 51.5177C51.7993 51.5604 51.8098 51.6505 51.9745 51.9369C51.9882 51.9606 52.0031 51.9861 52.0189 52.0131C52.0794 52.1167 52.1524 52.2418 52.2118 52.3639C52.2889 52.5228 52.3663 52.7211 52.3844 52.9453C52.4029 53.1735 52.3657 53.3866 52.321 53.5653C52.2915 53.6836 52.2509 53.8136 52.2163 53.9244C52.202 53.9703 52.1887 54.0129 52.1777 54.0499C52.0866 54.3556 52.0836 54.4926 52.1338 54.5975C52.184 54.7025 52.2925 54.7861 52.5876 54.907C52.6234 54.9217 52.6649 54.9381 52.7097 54.9558C52.8176 54.9983 52.9443 55.0484 53.0549 55.0996C53.222 55.177 53.4113 55.2818 53.5773 55.4394C53.7435 55.5971 53.8607 55.7817 53.9498 55.9468C54.0126 56.0631 54.0728 56.1928 54.1243 56.3039C54.1428 56.3438 54.1602 56.3812 54.1762 56.4148C54.3225 56.722 54.4101 56.8217 54.4969 56.8586C54.6639 56.9295 54.8602 56.914 55.2018 56.814C55.2569 56.7978 55.3181 56.7784 55.3843 56.7575C55.6694 56.6671 56.0456 56.5478 56.4165 56.5367C56.6523 56.5297 56.8759 56.5695 57.0698 56.6154C57.1719 56.6395 57.3009 56.6749 57.4156 56.7064C57.4888 56.7265 57.5561 56.745 57.6069 56.7579C57.9452 56.8441 58.1405 56.8519 58.3023 56.7744C58.4642 56.697 58.5807 56.5401 58.726 56.2227C58.7478 56.175 58.7757 56.111 58.8059 56.0414C58.8534 55.9323 58.9068 55.8097 58.9521 55.715C59.0381 55.5354 59.1474 55.3362 59.3009 55.1571C59.5423 54.8753 59.8713 54.6573 60.1206 54.4921C60.1785 54.4537 60.232 54.4182 60.2792 54.3855C60.5714 54.1824 60.7067 54.0392 60.7563 53.8647C60.7821 53.774 60.7595 53.6432 60.6121 53.3365C60.596 53.303 60.5778 53.2659 60.5583 53.2265C60.5042 53.1167 60.441 52.9884 60.3898 52.8666C60.3172 52.6935 60.2471 52.4865 60.2286 52.2581C60.2101 52.0299 60.2473 51.8168 60.292 51.6381C60.3215 51.5198 60.3621 51.3898 60.3967 51.279C60.411 51.2331 60.4243 51.1905 60.4354 51.1535C60.5264 50.8478 60.5295 50.7108 60.4793 50.6059C60.4291 50.5009 60.3205 50.4173 60.0254 50.2963C59.9896 50.2817 59.9481 50.2653 59.9034 50.2476C59.7955 50.205 59.6687 50.155 59.5581 50.1038C59.391 50.0264 59.2017 49.9216 59.0357 49.764C58.8725 49.6092 58.7667 49.4245 58.6914 49.2647C58.6336 49.1418 58.5821 49.0065 58.5394 48.8943C58.5283 48.8651 58.5178 48.8374 58.5079 48.812C58.3883 48.504 58.3247 48.4393 58.285 48.4205C58.1025 48.3343 57.9582 48.3388 57.7271 48.3888C57.6851 48.3979 57.6372 48.4096 57.5841 48.4227C57.3572 48.4784 57.0355 48.5574 56.6795 48.5494C56.4487 48.5443 56.2076 48.5103 55.9837 48.4743C55.9093 48.4623 55.8375 48.4503 55.7671 48.4385C55.6143 48.4128 55.4683 48.3883 55.3176 48.3684C54.8711 48.3092 54.5447 48.317 54.3107 48.4289C54.0766 48.5409 53.8657 48.7901 53.6315 49.1748C53.5525 49.3047 53.4799 49.4337 53.404 49.5687C53.369 49.6309 53.3333 49.6944 53.296 49.7598ZM52.7825 48.6581C53.0285 48.254 53.3664 47.7789 53.8818 47.5324C54.3973 47.2858 54.9793 47.321 55.4482 47.3831C55.6164 47.4054 55.7906 47.4346 55.9512 47.4615C56.0174 47.4726 56.0813 47.4834 56.1415 47.4931C56.3597 47.5282 56.5436 47.5523 56.7016 47.5558C56.9143 47.5605 57.0756 47.5217 57.2859 47.471C57.3562 47.4541 57.4319 47.4358 57.5169 47.4174C57.8463 47.3461 58.2439 47.3019 58.7095 47.5219C59.1549 47.7323 59.3332 48.1916 59.433 48.4487L59.4344 48.4524C59.4497 48.4918 59.4638 48.5287 59.477 48.5635C59.5173 48.6691 59.5505 48.7561 59.5905 48.8412C59.6415 48.9494 59.6842 49.0093 59.7199 49.0432C59.7745 49.095 59.8544 49.1457 59.9758 49.202C60.0606 49.2412 60.14 49.2725 60.2325 49.3089C60.284 49.3291 60.3395 49.351 60.4023 49.3767C60.7022 49.4996 61.1479 49.7005 61.3758 50.177C61.6038 50.6535 61.4804 51.1266 61.3878 51.4373C61.3685 51.5023 61.3506 51.5592 61.3341 51.612C61.3044 51.7069 61.2789 51.7883 61.2562 51.8789C61.2238 52.0087 61.2131 52.1028 61.2192 52.1778C61.2256 52.2573 61.2525 52.354 61.3062 52.4817C61.3451 52.5743 61.3873 52.6599 61.436 52.7588C61.4585 52.8044 61.4824 52.8528 61.5079 52.9061C61.6448 53.1908 61.8524 53.6435 61.7123 54.1365C61.5607 54.6697 61.1605 54.9833 60.8463 55.2016C60.7609 55.2609 60.6818 55.3139 60.6083 55.363C60.3753 55.5188 60.1984 55.6371 60.0557 55.8037C59.9841 55.8872 59.9188 55.9975 59.8486 56.1441C59.8036 56.238 59.7708 56.3144 59.7346 56.3984C59.7048 56.4677 59.6727 56.5423 59.6297 56.6362C59.4728 56.9792 59.2336 57.4307 58.7312 57.671C58.2288 57.9113 57.7271 57.8141 57.3616 57.721C57.2615 57.6955 57.1833 57.6737 57.1106 57.6534C57.0225 57.6289 56.9425 57.6065 56.8412 57.5826C56.683 57.5452 56.5561 57.5268 56.4461 57.5301C56.2269 57.5367 56.0237 57.6002 55.7563 57.6838C55.6718 57.7102 55.581 57.7385 55.4812 57.7678C55.114 57.8753 54.6187 57.99 54.1085 57.7734C53.6367 57.5731 53.4147 57.1273 53.2788 56.842C53.2534 56.7887 53.2307 56.7398 53.2094 56.6937C53.163 56.5936 53.1228 56.5071 53.0751 56.4187C53.0093 56.2967 52.9509 56.2151 52.8931 56.1602C52.8386 56.1084 52.7586 56.0577 52.6372 56.0014C52.5524 55.9622 52.473 55.9309 52.3805 55.8945C52.329 55.8743 52.2735 55.8524 52.2108 55.8267C51.9108 55.7038 51.4651 55.5029 51.2372 55.0264C51.0093 54.5499 51.1326 54.0768 51.2252 53.7661C51.2445 53.7011 51.2624 53.6442 51.2789 53.5913C51.3086 53.4965 51.3342 53.4151 51.3568 53.3244C51.3892 53.1947 51.3999 53.1006 51.3938 53.0256C51.3898 52.9766 51.37 52.9057 51.3177 52.7981C51.2767 52.7135 51.2297 52.633 51.1728 52.5354C51.154 52.5032 51.1342 52.4692 51.1131 52.4325L51.1111 52.429C50.9736 52.19 50.7279 51.7629 50.8436 51.2841C50.9646 50.7836 51.2486 50.5019 51.5108 50.2901C51.5785 50.2355 51.6403 50.188 51.6976 50.1439C51.869 50.012 52.0005 49.9108 52.1303 49.7423C52.2267 49.6171 52.3233 49.4588 52.433 49.2668C52.4632 49.2139 52.495 49.1574 52.5279 49.0989C52.6077 48.957 52.6943 48.8031 52.7825 48.6581Z" fill="#F15E04"/>
<path fill-rule="evenodd" clip-rule="evenodd" d="M59.0096 51.3083C59.724 52.802 59.114 54.6057 57.6115 55.3243C56.1091 56.0429 54.3221 55.3857 53.6076 53.8921C52.8932 52.3984 53.5032 50.5947 55.0057 49.8761C56.5081 49.1575 58.2951 49.8146 59.0096 51.3083ZM57.1827 54.4277C58.1792 53.9511 58.5957 52.7465 58.113 51.7372C57.6302 50.7278 56.431 50.296 55.4345 50.7727C54.438 51.2493 54.0215 52.4539 54.5042 53.4632C54.987 54.4725 56.1862 54.9043 57.1827 54.4277Z" fill="#F15E04"/>
<path fill-rule="evenodd" clip-rule="evenodd" d="M73.4306 42.2281C73.183 42.3465 72.8863 42.2418 72.7679 41.9942C71.7657 39.899 69.9301 36.4376 68.7981 34.6304C68.6524 34.3978 68.7229 34.0912 68.9555 33.9455C69.1881 33.7998 69.4947 33.8702 69.6404 34.1028C70.7991 35.9527 72.6527 39.4501 73.6645 41.5654C73.7829 41.813 73.6782 42.1097 73.4306 42.2281Z" fill="#F15E04"/>
<path fill-rule="evenodd" clip-rule="evenodd" d="M68.8916 40.8502C68.644 40.9686 68.3473 40.8639 68.2288 40.6163C67.3411 38.7602 66.6118 37.6056 65.772 36.4073C65.6145 36.1826 65.669 35.8727 65.8937 35.7152C66.1185 35.5577 66.4284 35.6122 66.5859 35.8369C67.4513 37.0717 68.21 38.2736 69.1254 40.1874C69.2438 40.435 69.1391 40.7317 68.8916 40.8502Z" fill="#F15E04"/>
<path fill-rule="evenodd" clip-rule="evenodd" d="M61.2236 44.8179C60.976 44.9364 60.6793 44.8316 60.5609 44.5841C59.6731 42.728 58.9438 41.5734 58.104 40.3751C57.9465 40.1504 58.001 39.8405 58.2257 39.683C58.4505 39.5255 58.7604 39.58 58.9179 39.8047C59.7833 41.0395 60.5421 42.2414 61.4575 44.1552C61.5759 44.4028 61.4712 44.6995 61.2236 44.8179Z" fill="#F15E04"/>
<path fill-rule="evenodd" clip-rule="evenodd" d="M48.9327 55.4028C49.1803 55.2843 49.477 55.3891 49.5954 55.6366C50.4831 57.4927 51.2124 58.6473 52.0522 59.8456C52.2098 60.0703 52.1552 60.3802 51.9305 60.5377C51.7058 60.6953 51.3959 60.6407 51.2384 60.416C50.373 59.1812 49.6142 57.9793 48.6988 56.0655C48.5804 55.8179 48.6851 55.5212 48.9327 55.4028Z" fill="#F15E04"/>
<path fill-rule="evenodd" clip-rule="evenodd" d="M36.9327 55.9575C37.1803 55.839 37.285 55.5423 37.1665 55.2947C36.2788 53.4387 35.8377 52.1462 35.4319 50.7404C35.3558 50.4767 35.0803 50.3246 34.8166 50.4007C34.553 50.4768 34.4009 50.7523 34.477 51.016C34.8951 52.4647 35.3546 53.8097 36.27 55.7236C36.3884 55.9712 36.6851 56.0759 36.9327 55.9575Z" fill="#F15E04"/>
<path fill-rule="evenodd" clip-rule="evenodd" d="M35.4366 60.6518C35.6842 60.5334 35.9809 60.6381 36.0993 60.8857C37.0624 62.8992 38.0949 64.7464 39.3876 66.5221C39.5491 66.744 39.5002 67.0548 39.2783 67.2163C39.0564 67.3778 38.7456 67.3289 38.5841 67.107C37.2455 65.2682 36.1833 63.3646 35.2027 61.3145C35.0843 61.0669 35.189 60.7702 35.4366 60.6518Z" fill="#F15E04"/>
</svg>
